<svg width="20" height="18" viewBox="0 0 20 18" fill="none" xmlns="http://www.w3.org/2000/svg">
<path d="M17.56 5.17399C17.8257 5.28029 18 5.53769 18 5.82392V15.3C18 15.6866 17.6866 16 17.3 16H16.7C16.3134 16 16 15.6866 16 15.3V8.7C16 8.3134 15.6866 8 15.3 8H4.7C4.3134 8 4 8.3134 4 8.7V15.3C4 15.6866 3.6866 16 3.3 16H2.7C2.3134 16 2 15.6866 2 15.3V5.82392C2 5.53769 2.17427 5.28029 2.44003 5.17399L9.74003 2.25399C9.90691 2.18723 10.0931 2.18723 10.26 2.25399L17.56 5.17399ZM19.3 18C19.6866 18 20 17.6866 20 17.3V4.47392C20 4.18769 19.8257 3.93029 19.56 3.82399L10.26 0.103989C10.0931 0.0372343 9.90691 0.0372343 9.74003 0.103989L0.440027 3.82399C0.174266 3.93029 0 4.18769 0 4.47392V17.3C0 17.6866 0.313401 18 0.7 18H5.3C5.6866 18 6 17.6866 6 17.3V10.7C6 10.3134 6.3134 10 6.7 10H13.3C13.6866 10 14 10.3134 14 10.7V17.3C14 17.6866 14.3134 18 14.7 18H19.3ZM9 16.7C9 16.3134 8.6866 16 8.3 16H7.7C7.3134 16 7 16.3134 7 16.7V17.3C7 17.6866 7.3134 18 7.7 18H8.3C8.6866 18 9 17.6866 9 17.3V16.7ZM11 13.7C11 13.3134 10.6866 13 10.3 13H9.7C9.3134 13 9 13.3134 9 13.7V14.3C9 14.6866 9.3134 15 9.7 15H10.3C10.6866 15 11 14.6866 11 14.3V13.7ZM13 16.7C13 16.3134 12.6866 16 12.3 16H11.7C11.3134 16 11 16.3134 11 16.7V17.3C11 17.6866 11.3134 18 11.7 18H12.3C12.6866 18 13 17.6866 13 17.3V16.7Z" fill="#667085"/>
</svg>
